<svg width="110" height="12" viewBox="0 0 110 12" fill="none" xmlns="http://www.w3.org/2000/svg">
  <path d="M0.174315 8.56372C0.0581049 8.56372 0 8.50685 0 8.39311C0 8.33958 0.0193683 8.26933 0.0581049 8.18235C0.103298 8.08869 0.142034 8.00505 0.174315 7.93146C0.367998 7.50995 0.623013 7.01151 0.939362 6.43612C1.26217 5.86073 1.6463 5.21174 2.09178 4.48916C1.91746 4.48916 1.8303 4.43564 1.8303 4.32859C1.8303 4.21485 1.89164 4.15798 2.0143 4.15798L2.30483 4.16801C2.50497 3.85356 2.67605 3.58928 2.81809 3.37518C2.96012 3.16108 3.0731 2.99382 3.15703 2.87339C3.29907 2.67936 3.45078 2.48534 3.61219 2.29131C3.78004 2.09059 3.96404 1.89657 4.16418 1.70923C4.46762 1.64233 4.77751 1.59549 5.09386 1.56873C5.41666 1.53528 5.7427 1.51855 6.07196 1.51855C6.65301 1.51855 7.05974 1.54866 7.29216 1.60887C7.37609 1.62894 7.43097 1.65236 7.45679 1.67912C7.48907 1.70589 7.50521 1.74268 7.50521 1.78952C7.50521 1.90326 7.45679 1.96013 7.35995 1.96013C7.28248 1.96013 7.13399 1.9434 6.91448 1.90995C6.69497 1.86981 6.35926 1.84973 5.90733 1.84973C5.68782 1.84973 5.44572 1.86311 5.18102 1.88988C4.91632 1.91664 4.62579 1.95678 4.30944 2.01031C4.03829 2.2244 3.49275 2.94364 2.67282 4.16801H5.04544C5.14874 4.16801 5.20039 4.22154 5.20039 4.32859C5.20039 4.43564 5.14874 4.48916 5.04544 4.48916H2.46946C1.53332 5.97447 0.845749 7.19884 0.406734 8.16228C2.14988 7.76085 3.46692 7.56013 4.35787 7.56013C4.97765 7.56013 5.28754 7.71402 5.28754 8.02178C5.28754 8.12883 5.23589 8.18235 5.1326 8.18235C5.04867 8.18235 5.00348 8.1489 4.99702 8.082C4.99056 8.0084 4.93246 7.96157 4.8227 7.94149C4.71941 7.91473 4.55478 7.90135 4.32881 7.90135C4.04474 7.90135 3.72517 7.92477 3.37008 7.9716C3.02145 8.01174 2.647 8.06527 2.24672 8.13217C1.67859 8.21915 1.21697 8.31282 0.861889 8.41318C0.506804 8.51354 0.277612 8.56372 0.174315 8.56372Z" fill="white"/>
  <path d="M7.13116 8.44329C7.02786 8.44329 6.97622 8.3998 6.97622 8.31282C6.97622 8.27937 6.98913 8.23922 7.01495 8.19239C7.04078 8.13887 7.06337 8.09538 7.08274 8.06192L7.95431 6.24544C8.32877 5.45595 8.516 5.01772 8.516 4.93074C8.516 4.83707 8.56119 4.79024 8.65157 4.79024C8.77424 4.79024 8.83557 4.85714 8.83557 4.99095C8.83557 5.03779 8.80652 5.13815 8.74841 5.29203C8.69031 5.44591 8.61606 5.61987 8.52568 5.81389C8.37073 6.1618 8.24161 6.42943 8.13831 6.61676C8.332 6.38259 8.52891 6.1618 8.72905 5.9544C8.92918 5.74699 9.13255 5.54962 9.33915 5.36228C9.95248 4.80696 10.4238 4.5293 10.753 4.5293C10.979 4.5293 11.092 4.6397 11.092 4.86049C11.092 5.06121 10.9273 5.51282 10.5981 6.21533C10.2688 6.92453 10.1042 7.3728 10.1042 7.56013C10.1042 7.64711 10.1332 7.6906 10.1914 7.6906C10.2107 7.6906 10.2398 7.68391 10.2785 7.67053C10.3237 7.65045 10.3689 7.64042 10.4141 7.64042C10.5238 7.64042 10.5787 7.69394 10.5787 7.80099C10.5787 7.9348 10.4399 8.00171 10.1623 8.00171C10.0332 8.00171 9.93956 7.9716 9.88146 7.91139C9.82335 7.84448 9.7943 7.7575 9.7943 7.65045C9.7943 7.32931 9.95248 6.8409 10.2688 6.18522C10.5852 5.53624 10.7433 5.14484 10.7433 5.01103C10.7433 4.93074 10.7143 4.8906 10.6562 4.8906C10.5142 4.8906 10.285 5.01437 9.96862 5.26192C9.62644 5.52954 9.28427 5.83731 8.9421 6.18522C8.59992 6.53313 8.27389 6.93122 7.964 7.37949L7.28611 8.35296C7.24737 8.41318 7.19572 8.44329 7.13116 8.44329Z" fill="white"/>
  <path d="M13.9145 4.23827C13.8048 4.23827 13.7499 4.1814 13.7499 4.06766C13.7499 4.0342 13.7725 3.97399 13.8177 3.88701C13.8629 3.79334 13.9145 3.69967 13.9726 3.60601C14.0307 3.51234 14.0759 3.44878 14.1082 3.41533C14.218 3.28821 14.3019 3.20792 14.36 3.17447C14.4246 3.14101 14.4827 3.12429 14.5343 3.12429C14.6699 3.12429 14.7377 3.18785 14.7377 3.31497C14.7377 3.3618 14.7086 3.41867 14.6505 3.48558C14.5989 3.54579 14.5375 3.60266 14.4665 3.65619C14.3632 3.72309 14.2987 3.77662 14.2728 3.81676L14.0598 4.12787C14.0533 4.15463 14.0372 4.1814 14.0114 4.20816C13.992 4.22823 13.9597 4.23827 13.9145 4.23827ZM10.496 11.5343C10.3217 11.5343 10.1797 11.4708 10.0699 11.3436C9.95371 11.2232 9.86978 11.0727 9.81813 10.892C9.76003 10.7181 9.73098 10.5508 9.73098 10.3902C9.73098 10.1962 9.75035 10.0189 9.78908 9.85834C9.84073 9.62417 9.92466 9.50709 10.0409 9.50709C10.1442 9.50709 10.1958 9.55727 10.1958 9.65762C10.1958 9.68439 10.1829 9.72118 10.1571 9.76802C10.1313 9.81485 10.1119 9.855 10.099 9.88845C10.0602 9.9955 10.0409 10.1327 10.0409 10.2999C10.0409 10.5073 10.0796 10.7047 10.1571 10.892C10.2346 11.0861 10.3572 11.1831 10.5251 11.1831C10.6542 11.1831 10.7833 11.1295 10.9124 11.0225C11.0416 10.9155 11.1675 10.7783 11.2901 10.611C11.4063 10.4505 11.5161 10.2798 11.6194 10.0992C11.7162 9.91856 11.7969 9.75129 11.8615 9.59741C11.9519 9.39 12.0423 9.16587 12.1326 8.92501C12.223 8.68415 12.3037 8.45332 12.3747 8.23253C12.4522 8.01174 12.5039 7.83444 12.5297 7.70063C12.5813 7.43301 12.633 7.16873 12.6846 6.9078C12.7427 6.64018 12.8008 6.37256 12.859 6.10493C12.9687 5.6299 13.0785 5.29872 13.1882 5.11138C13.298 4.92405 13.398 4.83038 13.4884 4.83038C13.5336 4.83038 13.5853 4.85045 13.6434 4.8906C13.7079 4.93074 13.7402 4.97757 13.7402 5.0311C13.7402 5.05786 13.6757 5.18498 13.5465 5.41246C13.4755 5.53958 13.4206 5.63994 13.3819 5.71354C13.3432 5.78713 13.3173 5.83731 13.3044 5.86407C13.2851 5.91091 13.256 6.01127 13.2173 6.16515C13.1785 6.31903 13.1333 6.50302 13.0817 6.71712C13.0365 6.92453 12.9881 7.13863 12.9364 7.35941C12.8848 7.5802 12.8364 7.78427 12.7912 7.9716C12.7524 8.15225 12.7169 8.29275 12.6846 8.39311C12.5813 8.74102 12.4587 9.08224 12.3166 9.41676C12.1746 9.75129 12.0229 10.0557 11.8615 10.33C11.3902 11.1329 10.935 11.5343 10.496 11.5343Z" fill="white"/>
  <path d="M15.7711 8.14221C15.2481 8.14221 14.9867 7.83779 14.9867 7.22895C14.9867 6.94795 15.0512 6.65356 15.1804 6.34579C15.3095 6.03803 15.4806 5.75368 15.6936 5.49275C15.9067 5.22512 16.1423 5.00768 16.4006 4.84042C16.6653 4.67315 16.9332 4.58952 17.2043 4.58952C17.4432 4.58952 17.6175 4.68319 17.7273 4.87052C17.837 5.05786 17.8919 5.26527 17.8919 5.49275C17.8919 5.79382 17.8338 6.10159 17.7176 6.41604C17.6014 6.72381 17.4432 7.00816 17.2431 7.26909C17.0429 7.53002 16.817 7.74078 16.5652 7.90135C16.3134 8.06192 16.0487 8.14221 15.7711 8.14221ZM15.7614 7.82106C15.8001 7.82106 15.8227 7.81772 15.8292 7.81103C16.081 7.77758 16.3134 7.68391 16.5264 7.53002C16.7395 7.37614 16.9235 7.18546 17.0784 6.95798C17.2398 6.72381 17.3625 6.47291 17.4464 6.20529C17.5304 5.93767 17.5723 5.67339 17.5723 5.41246C17.5723 5.25858 17.5304 5.13815 17.4464 5.05117C17.3625 4.96419 17.256 4.9207 17.1269 4.9207C16.9396 4.9207 16.7395 5.00099 16.5264 5.16156C16.3199 5.32214 16.1229 5.5262 15.9357 5.77375C15.7549 6.0213 15.6065 6.28223 15.4902 6.55655C15.374 6.82417 15.3159 7.06503 15.3159 7.27913C15.3159 7.64042 15.4644 7.82106 15.7614 7.82106Z" fill="white"/>
  <path d="M19.0444 11.5143C18.6506 11.5143 18.4537 11.2734 18.4537 10.7917C18.4537 10.3836 18.5376 9.98881 18.7055 9.60745C18.7313 9.54054 18.7732 9.50709 18.8313 9.50709C18.9476 9.50709 19.0057 9.56061 19.0057 9.66766C19.0057 9.69442 18.996 9.72788 18.9766 9.76802C18.9637 9.81485 18.9476 9.86503 18.9282 9.91856C18.883 10.0457 18.8475 10.1795 18.8217 10.32C18.7958 10.4605 18.7829 10.6077 18.7829 10.7616C18.7829 10.9355 18.8055 11.0526 18.8507 11.1128C18.8959 11.173 18.954 11.2031 19.025 11.2031C19.1929 11.2031 19.3898 11.1229 19.6158 10.9623C19.8482 10.8017 20.0871 10.5475 20.3324 10.1996C20.5067 9.95201 20.6875 9.65762 20.8747 9.31641C21.0619 8.97519 21.2621 8.58379 21.4751 8.14221C21.7592 7.56013 22.0207 6.96802 22.2595 6.36587C22.0981 6.57996 21.9303 6.78737 21.756 6.98809C21.5816 7.18881 21.3944 7.37614 21.1943 7.5501C20.6584 8.02513 20.213 8.26264 19.8579 8.26264C19.4318 8.26264 19.2187 8.0084 19.2187 7.49992C19.2187 7.31927 19.251 7.10183 19.3156 6.84759C19.3866 6.59335 19.4834 6.30231 19.6061 5.97447C19.6255 5.92094 19.6351 5.87745 19.6351 5.844C19.6351 5.80386 19.6448 5.76371 19.6642 5.72357C19.7675 5.4894 19.9386 5.22847 20.1774 4.94078C20.2291 4.88056 20.2743 4.85045 20.313 4.85045C20.4099 4.85045 20.4583 4.92405 20.4583 5.07124C19.832 6.02799 19.5189 6.83755 19.5189 7.49992C19.5189 7.78092 19.6254 7.92142 19.8385 7.92142C20.0774 7.92142 20.4099 7.75081 20.836 7.40959C21.1394 7.16873 21.4202 6.89777 21.6785 6.59669C21.9367 6.28892 22.1692 5.97112 22.3757 5.64328C22.5178 5.4225 22.6308 5.22847 22.7147 5.06121C22.8051 4.88725 22.86 4.77017 22.8793 4.70995C22.9116 4.60959 22.9568 4.55941 23.0149 4.55941C23.1376 4.55941 23.1989 4.61294 23.1989 4.71999C23.1989 4.77351 23.1731 4.87052 23.1214 5.01103C23.0762 5.14484 23.0181 5.30541 22.9471 5.49275C22.8438 5.76706 22.6953 6.13504 22.5016 6.59669C22.308 7.05834 22.0659 7.60697 21.7753 8.24257C21.4138 9.03206 21.0587 9.6777 20.7101 10.1795C20.4518 10.5609 20.1678 10.8787 19.8579 11.1329C19.5544 11.3871 19.2833 11.5143 19.0444 11.5143Z" fill="white"/>
  <path d="M23.8857 8.53361C23.776 8.53361 23.7211 8.48008 23.7211 8.37304C23.7211 8.36635 23.7598 8.28271 23.8373 8.12214C23.9148 7.96157 24.0245 7.72405 24.1666 7.40959L24.6604 6.33576C24.8606 5.90087 25.0026 5.55631 25.0865 5.30207C25.1769 5.04782 25.2221 4.88391 25.2221 4.81031C25.2221 4.70326 25.2738 4.64974 25.3771 4.64974C25.4804 4.64974 25.532 4.70326 25.532 4.81031C25.532 4.89729 25.503 5.03444 25.4449 5.22178C25.3932 5.40242 25.3061 5.63659 25.1834 5.92429L24.6895 7.08845C26.0388 5.32214 27.0557 4.43898 27.74 4.43898C27.8691 4.43898 27.9692 4.49585 28.0402 4.60959C28.1112 4.71664 28.1467 4.83707 28.1467 4.97088C28.1467 5.29203 27.924 5.85069 27.4785 6.64687C27.8207 6.28558 28.1661 5.92429 28.5147 5.563C28.8698 5.19502 29.2249 4.83373 29.58 4.47913C29.6704 4.39215 29.7446 4.34866 29.8027 4.34866C29.8802 4.34866 29.9448 4.3888 29.9964 4.46909C30.0481 4.54269 30.0739 4.62297 30.0739 4.70995C30.0739 4.77686 30.0448 4.86049 29.9867 4.96085C29.9028 5.10804 29.8253 5.28534 29.7543 5.49275C29.6833 5.69346 29.6026 5.92094 29.5122 6.17518C29.4089 6.46288 29.3347 6.71378 29.2895 6.92787C29.2443 7.14197 29.2217 7.31593 29.2217 7.44974C29.2217 7.617 29.2604 7.74078 29.3379 7.82106C29.4154 7.89466 29.4928 7.93146 29.5703 7.93146C29.7059 7.93146 29.8544 7.89466 30.0158 7.82106C30.1772 7.74747 30.3095 7.67387 30.4128 7.60028C30.6194 7.45977 30.8357 7.28582 31.0617 7.07841C31.2876 6.86431 31.5039 6.65021 31.7105 6.43612C31.7363 6.40935 31.7751 6.39597 31.8267 6.39597C31.9236 6.39597 31.972 6.43612 31.972 6.5164C31.972 6.59 31.9268 6.67363 31.8364 6.7673C31.5782 7.03492 31.3457 7.26575 31.1391 7.45977C30.9325 7.64711 30.7356 7.80099 30.5484 7.92142C30.4257 7.99502 30.2773 8.07196 30.1029 8.15225C29.9286 8.23253 29.7414 8.27268 29.5413 8.27268C29.354 8.27268 29.1959 8.21246 29.0667 8.09203C28.9441 7.9716 28.8827 7.71401 28.8827 7.31927C28.8827 7.16539 28.9086 6.98474 28.9602 6.77734C29.0119 6.56324 29.0893 6.32572 29.1926 6.06479L29.7059 4.80027L28.3211 6.24544C28.1597 6.4127 28.0273 6.5532 27.924 6.66694C27.8207 6.78068 27.7368 6.87435 27.6722 6.94794C27.5496 7.08176 27.4398 7.21222 27.343 7.33934C27.2526 7.46646 27.1751 7.57686 27.1105 7.67053C27.0653 7.74412 27.0137 7.78092 26.9556 7.78092C26.8458 7.78092 26.791 7.73409 26.791 7.64042C26.791 7.43301 26.9717 6.95464 27.3333 6.20529C27.6948 5.45595 27.8756 5.00768 27.8756 4.86049C27.8756 4.79358 27.8046 4.76013 27.6625 4.76013C27.0879 4.76013 26.0646 5.73361 24.5927 7.68056C24.47 7.86121 24.2666 8.13217 23.9826 8.49347C23.9632 8.52023 23.9309 8.53361 23.8857 8.53361Z" fill="white"/>
  <path d="M33.3298 8.37304C33.0586 8.37304 32.8456 8.27602 32.6906 8.082C32.5357 7.88797 32.4582 7.65045 32.4582 7.36945C32.4582 6.88773 32.6132 6.39263 32.9231 5.88414C33.007 5.74364 33.1038 5.60649 33.2136 5.47267C33.3233 5.33217 33.4428 5.19836 33.5719 5.07124C33.7656 4.87721 33.969 4.71664 34.182 4.58952C34.3951 4.4624 34.6016 4.39884 34.8018 4.39884C35.131 4.39884 35.2957 4.55941 35.2957 4.88056C35.2957 5.28199 35.0697 5.64663 34.6178 5.97447C34.1981 6.26885 33.785 6.41604 33.3782 6.41604C33.3072 6.41604 33.2426 6.4127 33.1845 6.40601C33.1329 6.39263 33.0845 6.37925 33.0393 6.36587C32.9747 6.49299 32.9166 6.65691 32.865 6.85762C32.8133 7.05834 32.7875 7.23229 32.7875 7.37949C32.7875 7.82106 32.9747 8.04185 33.3492 8.04185C33.6526 8.04185 33.9399 7.98833 34.2111 7.88128C34.4822 7.76754 34.805 7.55679 35.1795 7.24902C35.4119 7.06168 35.5862 6.91115 35.7024 6.79741C35.8186 6.68367 35.9445 6.56324 36.0801 6.43612C36.1188 6.40935 36.1543 6.39597 36.1866 6.39597C36.2189 6.39597 36.2512 6.40601 36.2835 6.42608C36.3157 6.44615 36.3319 6.47626 36.3319 6.5164C36.3319 6.59 36.2673 6.6937 36.1382 6.82751C36.0284 6.93456 35.9122 7.0483 35.7896 7.16873C35.6669 7.28247 35.4732 7.44305 35.2085 7.65045C34.9245 7.87793 34.6146 8.05523 34.2788 8.18235C33.9431 8.30948 33.6268 8.37304 33.3298 8.37304ZM33.3201 6.0949C33.5267 6.0949 33.7236 6.06144 33.9108 5.99454C34.0981 5.92763 34.2756 5.83062 34.4435 5.7035C34.8179 5.41581 35.0052 5.14484 35.0052 4.8906C35.0052 4.77686 34.9374 4.71999 34.8018 4.71999C34.5435 4.71999 34.2433 4.8839 33.9012 5.21174C33.7333 5.37232 33.5945 5.51951 33.4847 5.65332C33.3814 5.78044 33.2846 5.92094 33.1942 6.07483C33.233 6.08821 33.2749 6.0949 33.3201 6.0949Z" fill="white"/>
  <path d="M36.3954 8.44329C36.2921 8.44329 36.2405 8.3998 36.2405 8.31282C36.2405 8.27937 36.2534 8.23922 36.2792 8.19239C36.305 8.13887 36.3276 8.09538 36.347 8.06192L37.2186 6.24544C37.593 5.45595 37.7803 5.01772 37.7803 4.93074C37.7803 4.83707 37.8255 4.79024 37.9158 4.79024C38.0385 4.79024 38.0998 4.85714 38.0998 4.99095C38.0998 5.03779 38.0708 5.13815 38.0127 5.29203C37.9546 5.44591 37.8803 5.61987 37.79 5.81389C37.635 6.1618 37.5059 6.42943 37.4026 6.61676C37.5963 6.38259 37.7932 6.1618 37.9933 5.9544C38.1935 5.74699 38.3968 5.54962 38.6034 5.36228C39.2168 4.80696 39.688 4.5293 40.0173 4.5293C40.2433 4.5293 40.3563 4.6397 40.3563 4.86049C40.3563 5.06121 40.1916 5.51282 39.8624 6.21533C39.5331 6.92453 39.3685 7.3728 39.3685 7.56013C39.3685 7.64711 39.3975 7.6906 39.4556 7.6906C39.475 7.6906 39.504 7.68391 39.5428 7.67053C39.588 7.65045 39.6332 7.64042 39.6784 7.64042C39.7881 7.64042 39.843 7.69394 39.843 7.80099C39.843 7.9348 39.7042 8.00171 39.4266 8.00171C39.2975 8.00171 39.2038 7.9716 39.1457 7.91139C39.0876 7.84448 39.0586 7.7575 39.0586 7.65045C39.0586 7.32931 39.2168 6.8409 39.5331 6.18522C39.8494 5.53624 40.0076 5.14484 40.0076 5.01103C40.0076 4.93074 39.9786 4.8906 39.9205 4.8906C39.7784 4.8906 39.5492 5.01437 39.2329 5.26192C38.8907 5.52954 38.5485 5.83731 38.2064 6.18522C37.8642 6.53313 37.5382 6.93122 37.2283 7.37949L36.5504 8.35296C36.5116 8.41318 36.46 8.44329 36.3954 8.44329Z" fill="white"/>
  <path d="M41.5616 8.88486C41.4389 8.88486 41.3776 8.7845 41.3776 8.58379C41.3776 8.2894 41.5357 7.77423 41.8521 7.03827C42.1749 6.30231 42.6526 5.33886 43.2853 4.14794C43.04 4.14794 42.8076 4.1814 42.5881 4.2483C42.375 4.30852 42.262 4.38546 42.2491 4.47913C42.2427 4.50589 42.2265 4.53265 42.2007 4.55941C42.1813 4.57948 42.1491 4.58952 42.1039 4.58952C42.0006 4.58952 41.9489 4.536 41.9489 4.42895C41.9489 4.25499 42.0813 4.11114 42.346 3.99741C42.6107 3.88367 42.9819 3.8268 43.4596 3.8268L44.1278 2.68271C44.173 2.60911 44.2215 2.52883 44.2731 2.44185C44.3248 2.34818 44.3829 2.24782 44.4474 2.14077C44.512 2.04711 44.5862 2.00027 44.6702 2.00027C44.7218 2.00027 44.7605 2.017 44.7864 2.05045C44.8122 2.07721 44.8251 2.10732 44.8251 2.14077C44.8251 2.24113 44.6831 2.50875 44.399 2.94364C44.0439 3.48558 43.8535 3.77996 43.8276 3.8268C43.9245 3.8268 44.0697 3.83683 44.2634 3.8569C44.4571 3.87028 44.6863 3.8937 44.951 3.92715C45.0478 3.93384 45.0963 3.98402 45.0963 4.07769C45.0963 4.18474 45.0382 4.23827 44.9219 4.23827C44.8768 4.23827 44.7864 4.23158 44.6508 4.21819C44.5152 4.19812 44.37 4.1814 44.215 4.16801C44.0601 4.15463 43.9277 4.15129 43.818 4.15798L43.6727 4.16801C42.3621 6.55655 41.71 8.04185 41.7165 8.62393L41.7262 8.70422V8.72429C41.7262 8.83134 41.6713 8.88486 41.5616 8.88486Z" fill="white"/>
  <path d="M48.0954 8.62393C48.0502 8.62393 47.9986 8.60051 47.9405 8.55368C47.8823 8.50685 47.8533 8.45667 47.8533 8.40314C47.8533 8.34293 47.9179 8.18904 48.047 7.94149C48.1761 7.69394 48.3827 7.32262 48.6668 6.82751C48.9508 6.33241 49.3221 5.69012 49.7804 4.90063L51.0491 2.70278C51.1201 2.56897 51.2072 2.41174 51.3105 2.2311C51.4138 2.05045 51.5397 1.83635 51.6882 1.5888C51.7269 1.52859 51.7689 1.49848 51.8141 1.49848C51.8593 1.49848 51.9045 1.5219 51.9497 1.56873C51.9949 1.60887 52.0175 1.65236 52.0175 1.6992C52.0175 1.72596 51.8561 2.02369 51.5333 2.59239C51.2105 3.15439 50.723 3.99406 50.071 5.11138C49.8256 5.53289 49.5577 5.99788 49.2672 6.50637C48.9831 7.01485 48.6797 7.56682 48.3569 8.16228C50.2291 7.64042 51.6688 7.37949 52.676 7.37949C52.9794 7.37949 53.2312 7.43301 53.4314 7.54006C53.638 7.64042 53.7413 7.74078 53.7413 7.84114C53.7413 7.95487 53.6864 8.01174 53.5766 8.01174C53.4862 8.01174 53.441 7.96157 53.441 7.86121V7.8311C53.3765 7.79765 53.2667 7.77088 53.1118 7.75081C52.9568 7.73074 52.7793 7.72071 52.5792 7.72071C52.3338 7.72071 52.0562 7.74412 51.7463 7.79096C51.4364 7.8311 51.1201 7.88462 50.7973 7.95153C50.4809 8.01174 50.1839 8.0753 49.9063 8.14221C49.6352 8.20243 49.3769 8.26599 49.1316 8.33289C48.8927 8.40649 48.67 8.47005 48.4634 8.52357C48.3407 8.55033 48.2503 8.57375 48.1922 8.59382C48.1406 8.6139 48.1083 8.62393 48.0954 8.62393Z" fill="white"/>
  <path d="M58.1293 8.53361C57.813 8.53361 57.6548 8.29609 57.6548 7.82106C57.6548 7.56682 57.7129 7.25906 57.8291 6.89777C57.0479 7.84114 56.4346 8.31282 55.9891 8.31282C55.6211 8.31282 55.4371 8.082 55.4371 7.62035C55.4371 7.44639 55.4629 7.23898 55.5146 6.99812C55.5727 6.75057 55.6469 6.49633 55.7373 6.2354C55.8342 5.97447 55.9375 5.73026 56.0472 5.50278C56.157 5.2753 56.2667 5.09131 56.3765 4.95081C56.4152 4.90398 56.4636 4.88056 56.5217 4.88056C56.554 4.88056 56.5863 4.89394 56.6186 4.9207C56.6509 4.94077 56.667 4.97423 56.667 5.02106C56.667 5.06121 56.6444 5.11808 56.5992 5.19167C56.3087 5.68677 56.1021 6.11831 55.9794 6.4863C55.8245 6.9078 55.747 7.27244 55.747 7.5802C55.747 7.8679 55.818 8.01174 55.9601 8.01174C56.0504 8.01174 56.1699 7.96491 56.3184 7.87124C56.4669 7.77758 56.6186 7.66384 56.7735 7.53002C56.9349 7.38952 57.0737 7.25906 57.1899 7.13863C57.5127 6.78403 57.8033 6.40601 58.0615 6.00458C58.1777 5.81724 58.281 5.63659 58.3714 5.46264C58.4683 5.28199 58.5554 5.09466 58.6329 4.90063C58.6652 4.82704 58.691 4.77351 58.7104 4.74006C58.7362 4.69991 58.7717 4.67984 58.8169 4.67984C58.9525 4.67984 59.0202 4.73337 59.0202 4.84042C59.0202 4.90732 58.9977 4.95416 58.9525 4.98092C58.2939 6.36587 57.9647 7.31927 57.9647 7.84114C57.9647 7.98164 57.9776 8.082 58.0034 8.14221C58.0292 8.19574 58.0744 8.2225 58.139 8.2225C58.2294 8.2225 58.3682 8.16228 58.5554 8.04185C58.7491 7.92142 58.9751 7.73743 59.2333 7.48988L60.2501 6.52644C60.3018 6.47291 60.3502 6.44615 60.3954 6.44615C60.4987 6.44615 60.5503 6.49633 60.5503 6.59669C60.5503 6.68367 60.347 6.91784 59.9402 7.2992C59.7659 7.46646 59.611 7.60697 59.4754 7.72071C59.3398 7.83444 59.2139 7.9348 59.0977 8.02178C58.8782 8.18235 58.6845 8.30613 58.5167 8.39311C58.3488 8.48678 58.2197 8.53361 58.1293 8.53361Z" fill="white"/>
  <path d="M60.3349 8.44329C60.2251 8.44329 60.1702 8.38976 60.1702 8.28271C60.1702 8.22919 60.2477 8.11545 60.4027 7.94149C60.5641 7.76085 60.8094 7.52668 61.1387 7.23898L62.3008 6.21533C62.2556 6.03468 62.2136 5.87411 62.1749 5.73361C62.1426 5.59311 62.1103 5.47602 62.078 5.38235C61.9553 4.9943 61.8456 4.75009 61.7488 4.64974C61.71 4.60959 61.6906 4.5661 61.6906 4.51927C61.6906 4.41891 61.7391 4.36873 61.8359 4.36873C61.9844 4.36873 62.1393 4.6029 62.3008 5.07124C62.3524 5.22512 62.4008 5.37901 62.446 5.53289C62.4912 5.68677 62.5364 5.84066 62.5816 5.99454C63.2853 5.39239 63.7437 4.97757 63.9567 4.75009C64.0084 4.69657 64.0439 4.65643 64.0633 4.62966C64.0826 4.6029 64.0955 4.57948 64.102 4.55941C64.1343 4.48582 64.1892 4.44902 64.2666 4.44902C64.3699 4.44902 64.4216 4.4992 64.4216 4.59956C64.4216 4.80027 63.8405 5.37232 62.6784 6.31569C62.7559 6.59669 62.8366 6.86097 62.9205 7.10852C63.0045 7.35607 63.1013 7.56013 63.2111 7.72071C63.3273 7.87459 63.4564 7.95153 63.5984 7.95153C63.734 7.95153 63.876 7.91473 64.0245 7.84114C64.1795 7.76754 64.3344 7.67722 64.4894 7.57017C64.6443 7.45643 64.7831 7.34938 64.9058 7.24902C65.1382 7.06168 65.3125 6.91115 65.4287 6.79741C65.5449 6.68367 65.6708 6.56324 65.8064 6.43612C65.8451 6.40935 65.8807 6.39597 65.9129 6.39597C65.9452 6.39597 65.9775 6.40601 66.0098 6.42608C66.0421 6.44615 66.0582 6.47626 66.0582 6.5164C66.0582 6.59 65.9936 6.6937 65.8645 6.82751C65.7548 6.93456 65.6385 7.0483 65.5159 7.16873C65.3932 7.28247 65.1995 7.44305 64.9348 7.65045C64.8186 7.74412 64.6798 7.83779 64.5184 7.93146C64.3635 8.02513 64.2053 8.10207 64.0439 8.16228C63.8889 8.2225 63.7469 8.2526 63.6178 8.2526C63.3983 8.2526 63.2111 8.17232 63.0561 8.01174C62.9076 7.84448 62.7817 7.63038 62.6784 7.36945C62.5751 7.10852 62.4815 6.83421 62.3976 6.54651L61.4001 7.42967C61.2 7.60362 61.0224 7.77088 60.8675 7.93146C60.7125 8.09203 60.577 8.24257 60.4608 8.38307C60.4349 8.42321 60.393 8.44329 60.3349 8.44329Z" fill="white"/>
  <path d="M69.145 8.53361C68.8287 8.53361 68.6705 8.29609 68.6705 7.82106C68.6705 7.56682 68.7286 7.25906 68.8448 6.89777C68.0636 7.84114 67.4503 8.31282 67.0048 8.31282C66.6368 8.31282 66.4528 8.082 66.4528 7.62035C66.4528 7.44639 66.4787 7.23898 66.5303 6.99812C66.5884 6.75057 66.6627 6.49633 66.753 6.2354C66.8499 5.97447 66.9532 5.73026 67.0629 5.50278C67.1727 5.2753 67.2824 5.09131 67.3922 4.95081C67.4309 4.90398 67.4793 4.88056 67.5375 4.88056C67.5697 4.88056 67.602 4.89394 67.6343 4.9207C67.6666 4.94077 67.6827 4.97423 67.6827 5.02106C67.6827 5.06121 67.6601 5.11808 67.6149 5.19167C67.3244 5.68677 67.1178 6.11831 66.9951 6.4863C66.8402 6.9078 66.7627 7.27244 66.7627 7.5802C66.7627 7.8679 66.8337 8.01174 66.9758 8.01174C67.0662 8.01174 67.1856 7.96491 67.3341 7.87124C67.4826 7.77758 67.6343 7.66384 67.7892 7.53002C67.9506 7.38952 68.0894 7.25906 68.2057 7.13863C68.5285 6.78403 68.819 6.40601 69.0772 6.00458C69.1934 5.81724 69.2967 5.63659 69.3871 5.46264C69.484 5.28199 69.5711 5.09466 69.6486 4.90063C69.6809 4.82704 69.7067 4.77351 69.7261 4.74006C69.7519 4.69991 69.7874 4.67984 69.8326 4.67984C69.9682 4.67984 70.036 4.73337 70.036 4.84042C70.036 4.90732 70.0134 4.95416 69.9682 4.98092C69.3097 6.36587 68.9804 7.31927 68.9804 7.84114C68.9804 7.98164 68.9933 8.082 69.0191 8.14221C69.045 8.19574 69.0901 8.2225 69.1547 8.2225C69.2451 8.2225 69.3839 8.16228 69.5711 8.04185C69.7648 7.92142 69.9908 7.73743 70.249 7.48988L71.2658 6.52644C71.3175 6.47291 71.3659 6.44615 71.4111 6.44615C71.5144 6.44615 71.5661 6.49633 71.5661 6.59669C71.5661 6.68367 71.3627 6.91784 70.956 7.2992C70.7816 7.46646 70.6267 7.60697 70.4911 7.72071C70.3555 7.83444 70.2296 7.9348 70.1134 8.02178C69.8939 8.18235 69.7002 8.30613 69.5324 8.39311C69.3645 8.48678 69.2354 8.53361 69.145 8.53361Z" fill="white"/>
  <path d="M71.6121 8.44329C71.5088 8.44329 71.4571 8.3998 71.4571 8.31282C71.4571 8.27268 71.4668 8.23253 71.4862 8.19239C71.512 8.15225 71.5313 8.11879 71.5443 8.09203L72.4255 6.24544C72.8 5.45595 72.9872 5.01772 72.9872 4.93074C72.9872 4.83707 73.0324 4.79024 73.1228 4.79024C73.2454 4.79024 73.3068 4.8538 73.3068 4.98092C73.3068 5.04782 73.2777 5.15487 73.2196 5.30207C73.1615 5.44926 73.0873 5.61987 72.9969 5.81389C72.8419 6.1618 72.7128 6.42943 72.6095 6.61676C72.8032 6.38259 73.0001 6.1618 73.2002 5.9544C73.4004 5.74699 73.6038 5.54962 73.8103 5.36228C74.4237 4.80696 74.895 4.5293 75.2242 4.5293C75.4502 4.5293 75.5632 4.6397 75.5632 4.86049C75.5632 5.07459 75.4954 5.18164 75.3598 5.18164C75.2953 5.18164 75.2468 5.12477 75.2146 5.01103C75.1952 4.93074 75.15 4.8906 75.079 4.8906C74.9692 4.8906 74.7562 5.01437 74.4398 5.26192C74.0912 5.52954 73.7393 5.84735 73.3843 6.21533C73.0356 6.58331 72.6644 7.05165 72.2706 7.62035L71.7864 8.32286C71.7605 8.35631 71.7347 8.38307 71.7089 8.40314C71.6895 8.4299 71.6572 8.44329 71.6121 8.44329Z" fill="white"/>
  <path d="M75.8953 11.5143C75.5014 11.5143 75.3045 11.2734 75.3045 10.7917C75.3045 10.3836 75.3885 9.98881 75.5563 9.60745C75.5821 9.54054 75.6241 9.50709 75.6822 9.50709C75.7984 9.50709 75.8565 9.56061 75.8565 9.66766C75.8565 9.69442 75.8468 9.72788 75.8275 9.76802C75.8146 9.81485 75.7984 9.86503 75.779 9.91856C75.7338 10.0457 75.6983 10.1795 75.6725 10.32C75.6467 10.4605 75.6338 10.6077 75.6338 10.7616C75.6338 10.9355 75.6564 11.0526 75.7016 11.1128C75.7468 11.173 75.8049 11.2031 75.8759 11.2031C76.0437 11.2031 76.2407 11.1229 76.4666 10.9623C76.699 10.8017 76.9379 10.5475 77.1832 10.1996C77.3576 9.95201 77.5383 9.65762 77.7256 9.31641C77.9128 8.97519 78.1129 8.58379 78.326 8.14221C78.61 7.56013 78.8715 6.96802 79.1104 6.36587C78.949 6.57996 78.7811 6.78737 78.6068 6.98809C78.4325 7.18881 78.2453 7.37614 78.0451 7.5501C77.5093 8.02513 77.0638 8.26264 76.7087 8.26264C76.2826 8.26264 76.0696 8.0084 76.0696 7.49992C76.0696 7.31927 76.1018 7.10183 76.1664 6.84759C76.2374 6.59335 76.3343 6.30231 76.4569 5.97447C76.4763 5.92094 76.486 5.87745 76.486 5.844C76.486 5.80386 76.4957 5.76371 76.515 5.72357C76.6183 5.4894 76.7894 5.22847 77.0283 4.94078C77.0799 4.88056 77.1251 4.85045 77.1639 4.85045C77.2607 4.85045 77.3091 4.92405 77.3091 5.07124C76.6829 6.02799 76.3698 6.83755 76.3698 7.49992C76.3698 7.78092 76.4763 7.92142 76.6894 7.92142C76.9282 7.92142 77.2607 7.75081 77.6868 7.40959C77.9902 7.16873 78.2711 6.89777 78.5293 6.59669C78.7876 6.28892 79.02 5.97112 79.2266 5.64328C79.3686 5.4225 79.4816 5.22847 79.5655 5.06121C79.6559 4.88725 79.7108 4.77017 79.7302 4.70995C79.7625 4.60959 79.8076 4.55941 79.8657 4.55941C79.9884 4.55941 80.0498 4.61294 80.0498 4.71999C80.0498 4.77351 80.0239 4.87052 79.9723 5.01103C79.9271 5.14484 79.869 5.30541 79.798 5.49275C79.6947 5.76706 79.5462 6.13504 79.3525 6.59669C79.1588 7.05834 78.9167 7.60697 78.6262 8.24257C78.2646 9.03206 77.9096 9.6777 77.5609 10.1795C77.3027 10.5609 77.0186 10.8787 76.7087 11.1329C76.4053 11.3871 76.1341 11.5143 75.8953 11.5143Z" fill="white"/>
  <path d="M84.7475 9.1759C84.6249 9.1759 84.5635 9.11903 84.5635 9.00529C84.5635 8.21581 85.009 6.98474 85.9 5.3121C85.9645 5.19167 86.0646 5.01437 86.2002 4.7802C85.9807 4.80696 85.7967 4.85714 85.6482 4.93074C85.5061 4.99764 85.4125 5.0311 85.3673 5.0311C85.2511 5.0311 85.193 4.97423 85.193 4.86049C85.193 4.68653 85.5933 4.536 86.3938 4.40888C86.5036 4.21485 86.6424 3.97399 86.8103 3.68629C86.9846 3.3986 87.1912 3.06073 87.4301 2.67267C87.6044 2.38498 87.7529 2.13408 87.8755 1.91998C87.9982 1.6992 88.0983 1.49848 88.1757 1.31783C88.2016 1.25093 88.2435 1.21747 88.3016 1.21747C88.4243 1.21747 88.4856 1.28438 88.4856 1.41819C88.4856 1.46503 88.4082 1.62225 88.2532 1.88988C88.1047 2.15081 87.8691 2.55224 87.5463 3.09418L86.7812 4.36873C87.0266 4.34197 87.2848 4.3219 87.5559 4.30852C87.8271 4.29514 88.1047 4.28844 88.3888 4.28844C88.9569 4.28844 89.9996 4.33862 91.5168 4.43898C91.6459 4.15129 91.7815 3.87028 91.9235 3.59597C92.072 3.31497 92.2269 3.03731 92.3883 2.763C92.6208 2.35487 92.8241 2.03707 92.9984 1.80959C93.1728 1.57542 93.3019 1.42488 93.3858 1.35798C93.4697 1.29107 93.5375 1.25762 93.5892 1.25762C93.686 1.25762 93.7344 1.31114 93.7344 1.41819C93.7344 1.47172 93.7054 1.51855 93.6473 1.55869C93.5311 1.64567 93.389 1.8029 93.2212 2.03038C93.0533 2.25786 92.8661 2.55559 92.6595 2.92357C92.3496 3.4655 92.0849 3.98068 91.8654 4.46909C92.0914 4.46909 92.2043 4.52596 92.2043 4.6397C92.2043 4.68653 92.1882 4.72668 92.1559 4.76013C92.1236 4.79358 92.0752 4.80696 92.0107 4.80027L91.7201 4.7802C91.0681 6.28558 90.742 7.31593 90.742 7.87124V8.09203C90.742 8.17232 90.6871 8.21246 90.5774 8.21246C90.4741 8.21246 90.4225 8.09538 90.4225 7.86121C90.4225 7.27244 90.7388 6.2354 91.3715 4.75009C90.5839 4.70326 89.935 4.66981 89.425 4.64974C88.9214 4.62966 88.5566 4.61963 88.3307 4.61963C87.698 4.61963 87.1202 4.64974 86.5972 4.70995L86.1808 5.46264C85.8644 6.04472 85.6159 6.56658 85.4351 7.02823C85.2543 7.48319 85.1317 7.82441 85.0671 8.05189C85.0026 8.31282 84.9606 8.51354 84.9412 8.65404C84.9219 8.79454 84.9057 8.92501 84.8928 9.04544C84.8864 9.13241 84.8379 9.1759 84.7475 9.1759Z" fill="white"/>
  <path d="M94.7101 8.14221C94.1872 8.14221 93.9257 7.83779 93.9257 7.22895C93.9257 6.94795 93.9902 6.65356 94.1194 6.34579C94.2485 6.03803 94.4196 5.75368 94.6326 5.49275C94.8457 5.22512 95.0813 5.00768 95.3396 4.84042C95.6043 4.67315 95.8722 4.58952 96.1434 4.58952C96.3822 4.58952 96.5565 4.68319 96.6663 4.87052C96.7761 5.05786 96.8309 5.26527 96.8309 5.49275C96.8309 5.79382 96.7728 6.10159 96.6566 6.41604C96.5404 6.72381 96.3822 7.00816 96.1821 7.26909C95.982 7.53002 95.756 7.74078 95.5042 7.90135C95.2524 8.06192 94.9877 8.14221 94.7101 8.14221ZM94.7004 7.82106C94.7392 7.82106 94.7617 7.81772 94.7682 7.81103C95.02 7.77758 95.2524 7.68391 95.4655 7.53002C95.6785 7.37614 95.8625 7.18546 96.0175 6.95798C96.1789 6.72381 96.3015 6.47291 96.3855 6.20529C96.4694 5.93767 96.5114 5.67339 96.5114 5.41246C96.5114 5.25858 96.4694 5.13815 96.3855 5.05117C96.3015 4.96419 96.195 4.9207 96.0659 4.9207C95.8787 4.9207 95.6785 5.00099 95.4655 5.16156C95.2589 5.32214 95.062 5.5262 94.8747 5.77375C94.694 6.0213 94.5455 6.28223 94.4293 6.55655C94.313 6.82417 94.255 7.06503 94.255 7.27913C94.255 7.64042 94.4034 7.82106 94.7004 7.82106Z" fill="white"/>
  <path d="M98.1287 8.88486C98.006 8.88486 97.9447 8.7845 97.9447 8.58379C97.9447 8.2894 98.1029 7.77423 98.4192 7.03827C98.742 6.30231 99.2198 5.33886 99.8525 4.14794C99.6071 4.14794 99.3747 4.1814 99.1552 4.2483C98.9421 4.30852 98.8292 4.38546 98.8162 4.47913C98.8098 4.50589 98.7937 4.53265 98.7678 4.55941C98.7485 4.57948 98.7162 4.58952 98.671 4.58952C98.5677 4.58952 98.516 4.536 98.516 4.42895C98.516 4.25499 98.6484 4.11114 98.9131 3.99741C99.1778 3.88367 99.549 3.8268 100.027 3.8268L100.695 2.68271C100.74 2.60911 100.789 2.52883 100.84 2.44185C100.892 2.34818 100.95 2.24782 101.015 2.14077C101.079 2.04711 101.153 2.00027 101.237 2.00027C101.289 2.00027 101.328 2.017 101.353 2.05045C101.379 2.07721 101.392 2.10732 101.392 2.14077C101.392 2.24113 101.25 2.50875 100.966 2.94364C100.611 3.48558 100.421 3.77996 100.395 3.8268C100.492 3.8268 100.637 3.83683 100.831 3.8569C101.024 3.87028 101.253 3.8937 101.518 3.92715C101.615 3.93384 101.663 3.98402 101.663 4.07769C101.663 4.18474 101.605 4.23827 101.489 4.23827C101.444 4.23827 101.353 4.23158 101.218 4.21819C101.082 4.19812 100.937 4.1814 100.782 4.16801C100.627 4.15463 100.495 4.15129 100.385 4.15798L100.24 4.16801C98.9292 6.55655 98.2772 8.04185 98.2836 8.62393L98.2933 8.70422V8.72429C98.2933 8.83134 98.2384 8.88486 98.1287 8.88486Z" fill="white"/>
  <path d="M102.269 8.37304C101.998 8.37304 101.785 8.27602 101.63 8.082C101.475 7.88797 101.397 7.65045 101.397 7.36945C101.397 6.88773 101.552 6.39263 101.862 5.88414C101.946 5.74364 102.043 5.60649 102.153 5.47267C102.262 5.33217 102.382 5.19836 102.511 5.07124C102.705 4.87721 102.908 4.71664 103.121 4.58952C103.334 4.4624 103.541 4.39884 103.741 4.39884C104.07 4.39884 104.235 4.55941 104.235 4.88056C104.235 5.28199 104.009 5.64663 103.557 5.97447C103.137 6.26885 102.724 6.41604 102.317 6.41604C102.246 6.41604 102.182 6.4127 102.124 6.40601C102.072 6.39263 102.023 6.37925 101.978 6.36587C101.914 6.49299 101.856 6.65691 101.804 6.85762C101.752 7.05834 101.726 7.23229 101.726 7.37949C101.726 7.82106 101.914 8.04185 102.288 8.04185C102.592 8.04185 102.879 7.98833 103.15 7.88128C103.421 7.76754 103.744 7.55679 104.118 7.24902C104.351 7.06168 104.525 6.91115 104.641 6.79741C104.758 6.68367 104.884 6.56324 105.019 6.43612C105.058 6.40935 105.093 6.39597 105.126 6.39597C105.158 6.39597 105.19 6.40601 105.222 6.42608C105.255 6.44615 105.271 6.47626 105.271 6.5164C105.271 6.59 105.206 6.6937 105.077 6.82751C104.967 6.93456 104.851 7.0483 104.729 7.16873C104.606 7.28247 104.412 7.44305 104.148 7.65045C103.863 7.87793 103.554 8.05523 103.218 8.18235C102.882 8.30948 102.566 8.37304 102.269 8.37304ZM102.259 6.0949C102.466 6.0949 102.663 6.06144 102.85 5.99454C103.037 5.92763 103.215 5.83062 103.382 5.7035C103.757 5.41581 103.944 5.14484 103.944 4.8906C103.944 4.77686 103.876 4.71999 103.741 4.71999C103.483 4.71999 103.182 4.8839 102.84 5.21174C102.672 5.37232 102.534 5.51951 102.424 5.65332C102.32 5.78044 102.224 5.92094 102.133 6.07483C102.172 6.08821 102.214 6.0949 102.259 6.0949Z" fill="white"/>
  <path d="M106.729 8.46336C106.432 8.46336 106.203 8.36969 106.041 8.18235C105.886 7.98833 105.809 7.73409 105.809 7.41963C105.809 7.19215 105.848 6.91784 105.925 6.59669C106.061 6.05475 106.29 5.42584 106.613 4.70995C106.865 4.16801 107.136 3.63611 107.426 3.11425C107.717 2.5857 108.036 2.06718 108.385 1.55869C108.94 0.742445 109.328 0.33432 109.547 0.33432C109.689 0.33432 109.76 0.374464 109.76 0.454751C109.76 0.56849 109.579 0.852839 109.218 1.3078L108.54 2.16084C107.952 2.89681 107.471 3.6495 107.097 4.41891C106.729 5.18833 106.442 5.95774 106.235 6.72716C106.177 6.94794 106.148 7.15535 106.148 7.34938C106.148 7.85786 106.348 8.1121 106.748 8.1121C106.89 8.1121 107.036 8.06861 107.184 7.98164C107.333 7.90135 107.413 7.86121 107.426 7.86121C107.504 7.86121 107.542 7.91808 107.542 8.03182C107.542 8.13217 107.507 8.20912 107.436 8.26264C107.216 8.39645 106.981 8.46336 106.729 8.46336Z" fill="white"/>
</svg>
