<svg width="110" height="16" viewBox="0 0 110 16" fill="none" xmlns="http://www.w3.org/2000/svg">
  <path d="M12.7008 1.55403C12.7008 1.55403 14.0179 2.62027 14.7863 3.34155C14.7392 3.51403 14.5511 3.59243 14.3315 3.59243H0.34496L0.21952 3.15339H11.5405L12.7008 1.55403ZM5.69184 0.848426C10.4586 0.675945 8.56129 4.40779 6.55424 3.04363C6.47584 2.25963 6.05248 1.42859 5.59776 0.926826L5.69184 0.848426ZM10.8819 8.64139L12.1363 7.52811L14.065 9.36267C13.9239 9.50379 13.7671 9.55083 13.4064 9.56651C11.7286 10.0369 8.95329 10.4446 7.11873 10.6171L7.04033 10.5073C8.34177 10.0369 10.1606 9.22155 11.0701 8.64139H10.8819ZM9.06305 10.0212C9.03169 10.2564 8.87489 10.3819 8.56129 10.4289V13.2984C8.56129 14.8193 8.16929 15.6033 5.55072 15.8072C5.488 15.1016 5.39392 14.6155 5.08032 14.2705C4.7824 13.9569 4.43744 13.7217 3.46528 13.5492V13.3611C3.46528 13.3611 5.50368 13.4865 5.86433 13.4865C6.06816 13.4865 6.14656 13.4238 6.14656 13.2356V9.80171L9.06305 10.0212ZM9.61185 4.69003L10.5997 3.59243L12.7165 5.16043C12.6224 5.28587 12.4342 5.42699 12.105 5.50539V7.54379C12.0893 7.65355 10.8976 7.99851 10.1763 7.99851H9.76865V4.69003H9.61185ZM5.08032 7.65355C5.08032 7.84171 4.04544 8.32779 3.12032 8.32779H2.80672V3.79627L5.20576 4.69003H10.631V5.12907H5.08032V7.65355ZM10.8506 6.91659V7.35563H4.0768V6.91659H10.8506ZM11.9168 8.64139V9.08043H1.53664L1.39552 8.64139H11.9168ZM12.8576 9.92715C12.8576 9.92715 14.1747 10.962 14.9587 11.652C14.9274 11.8244 14.7392 11.9028 14.504 11.9028H0.12544L0 11.4638H11.6973L12.8576 9.92715Z" fill="white"/>
  <path d="M46.4599 4.23531C46.3501 4.40779 46.0365 4.53323 45.5348 4.29803L46.0208 4.21963C45.2212 5.36427 43.4493 7.13611 42.0538 7.99851L42.0381 7.81035H42.8535C42.7908 8.73547 42.5085 9.25291 42.1479 9.40971L41.3482 7.59083C41.3482 7.59083 41.6775 7.49675 41.8186 7.40267C42.7437 6.60299 44.0138 4.25099 44.3901 2.98091L46.4599 4.23531ZM45.5818 1.80491C45.5034 1.99307 45.2212 2.14987 44.688 1.96171L45.2055 1.88331C44.4685 2.79275 43.1044 4.03147 42.0538 4.58027V4.40779H42.9005C42.8378 5.34859 42.5556 5.86603 42.1949 6.02283L41.3796 4.17259C41.3796 4.17259 41.6461 4.10987 41.7872 4.01579C42.3517 3.48267 43.073 1.71083 43.2455 0.801385L45.5818 1.80491ZM36.6128 4.23531C36.5031 4.42347 36.1895 4.53323 35.6877 4.31371L36.1738 4.23531C35.3427 5.37995 33.4925 7.15179 32.0499 8.01419L32.0343 7.82603H32.8339C32.7712 8.75115 32.489 9.26859 32.1283 9.42539L31.3287 7.60651C31.3287 7.60651 31.6736 7.51243 31.8147 7.41835C32.7869 6.61867 34.1511 4.26667 34.5587 2.98091L36.6128 4.23531ZM35.5779 1.82059C35.4995 2.00875 35.2173 2.16555 34.6685 1.97739L35.1859 1.89899C34.4647 2.80843 33.1162 4.03147 32.097 4.61163L32.0813 4.42347H32.9123C32.8496 5.34859 32.5674 5.85035 32.2224 6.02283L31.4227 4.20395C31.4227 4.20395 31.6893 4.12555 31.8304 4.03147C32.3949 3.49835 33.1005 1.74219 33.273 0.832746L35.5779 1.82059ZM38.024 12.4673C37.8986 12.6555 37.6947 12.7182 37.2871 12.6555C35.625 14.0667 33.1005 14.788 31.2503 14.9918L31.1875 14.835C32.6458 14.0196 34.3549 12.483 35.5152 10.7896L38.024 12.4673ZM40.5171 11.6833C47.1812 10.8366 46.7892 15.8228 44.2647 14.882C43.4336 13.8785 41.944 12.5928 40.4544 11.8244L40.5171 11.6833ZM41.7559 7.54379C42.3517 7.52811 43.7472 7.44971 45.1114 7.33995L45.1271 7.52811C44.594 7.85739 43.4023 8.54731 42.2106 9.15883L41.7559 7.54379ZM41.6461 4.23531C42.242 4.21963 43.6061 4.14123 44.9076 4.04715L44.9232 4.23531C44.4528 4.56459 43.3396 5.23883 42.2106 5.85035L41.6461 4.23531ZM44.5156 5.92875C47.6045 7.60651 45.8797 10.0056 44.7194 8.71979C44.7821 7.81035 44.5783 6.74411 44.3274 5.99147L44.5156 5.92875ZM31.705 7.59083C32.3479 7.57515 33.8688 7.48107 35.3741 7.37131L35.3898 7.55947C34.7783 7.90443 33.4925 8.59435 32.1597 9.20587L31.705 7.59083ZM31.705 4.25099C32.3008 4.23531 33.665 4.15691 34.9664 4.06283L34.9821 4.25099C34.5117 4.58027 33.3984 5.25451 32.2695 5.86603L31.705 4.25099ZM40.7053 9.17451C40.674 9.37835 40.5642 9.55083 40.1251 9.61355V15.274C40.1251 15.4308 39.0746 15.8072 38.1181 15.8072H37.7104V8.92363L40.7053 9.17451ZM44.1236 8.90795C44.1236 8.90795 45.4407 9.89579 46.2404 10.57C46.1933 10.7425 46.0208 10.8209 45.7856 10.8209H31.5482L31.4227 10.3819H42.9632L44.1236 8.90795ZM34.4803 5.96011C37.4909 7.59083 35.8131 10.0056 34.6842 8.75115C34.8096 7.84171 34.5901 6.75979 34.2922 6.02283L34.4803 5.96011ZM40.3447 1.08363C40.2976 1.35019 40.1095 1.49131 39.7645 1.52267C39.4196 2.00875 38.7923 2.71435 38.416 3.16907H37.9927C38.024 2.55755 38.024 1.50699 38.0084 0.801385L40.3447 1.08363ZM39.2157 2.93387L40.0154 2.08715L41.6461 3.32587C41.5677 3.41995 41.4109 3.51403 41.1757 3.57675V8.26507C41.16 8.37483 40.2663 8.73547 39.6548 8.73547H39.3411V2.93387H39.2157ZM38.2435 8.48459C38.2435 8.65707 37.4909 9.03339 36.7539 9.03339H36.5031V2.21259L38.3063 2.93387H40.4231V3.37291H38.2435V8.48459ZM40.2819 7.54379V7.98283H37.2557V7.54379H40.2819ZM40.2819 5.20747V5.64651H37.2557V5.20747H40.2819Z" fill="white"/>
  <path d="M71.8301 5.22315H69.8701V2.32235H71.8301V5.22315ZM74.3703 2.32235V5.22315H72.4417V2.32235H74.3703ZM73.0061 10.57C73.0061 10.57 73.9626 11.354 74.5271 11.9028C74.4801 12.0753 74.3233 12.1537 74.1037 12.1537H69.9956L69.8701 11.7147H72.1751L73.0061 10.57ZM63.7863 10.915C64.0372 10.915 64.0999 10.915 64.2724 10.5857C64.6173 9.95851 64.6173 9.95851 67.424 3.09067L67.6592 3.13771C67.1261 5.19179 66.2167 8.93931 66.0442 9.89579C65.9188 10.476 65.8247 11.0875 65.8247 11.5108C65.8717 12.436 66.593 12.922 66.5617 14.396C66.5303 15.2427 65.9188 15.8228 65.0407 15.8228C64.6487 15.8228 64.1783 15.6347 64.0215 15.0075C64.3508 13.3454 64.288 11.7304 63.9117 11.4638C63.6922 11.307 63.41 11.2286 63.0807 11.1972V10.915C63.0807 10.915 63.6138 10.915 63.7863 10.915ZM62.7984 4.72139C67.4397 5.00363 65.762 8.54731 63.8804 7.27723C63.7079 6.38347 63.1748 5.42699 62.6887 4.79979L62.7984 4.72139ZM64.0842 1.09931C68.7725 1.53835 67.0321 5.06635 65.1504 3.76491C64.978 2.83979 64.4448 1.85195 63.9588 1.17771L64.0842 1.09931ZM67.6279 4.15691L69.7917 4.95659H74.6212L75.6404 3.79627L77.4436 5.23883C77.3338 5.39563 77.1457 5.52107 76.785 5.58379V15.1486C76.785 15.2584 76.1108 15.6974 75.0602 15.6974H74.7153V5.39563H69.6036V15.274C69.6036 15.4152 68.9921 15.7915 67.9885 15.7915H67.6279V4.15691ZM71.8301 6.83819C71.8301 8.02987 71.6106 9.70763 69.5722 10.6955L69.4311 10.523C70.2308 9.42539 70.2308 8.01419 70.2308 6.83819V5.19179H71.8301V6.83819ZM74.0253 5.19179C74.0253 5.36427 74.0253 5.55243 74.0253 5.67787V8.28075C74.0253 8.45323 74.0567 8.51595 74.2292 8.51595H74.5428C74.6369 8.51595 74.7623 8.50027 74.8407 8.50027C74.9191 8.50027 75.0759 8.50027 75.1386 8.48459C75.2327 8.48459 75.3738 8.45323 75.4836 8.42187H75.6247L75.6874 8.45323C76.0794 8.61003 76.2049 8.78251 76.2049 9.08043C76.2049 9.67627 75.7188 9.91147 74.3233 9.91147H73.6804C72.5828 9.91147 72.4573 9.58219 72.4573 8.64139V5.19179H74.0253ZM75.8442 13.8472V14.2862H68.8353V13.8472H75.8442ZM75.8129 0.785706C75.8129 0.785706 76.9732 1.67947 77.6788 2.30667C77.6317 2.47915 77.4593 2.55755 77.2397 2.55755H67.2516L67.1261 2.11851H74.7937L75.8129 0.785706Z" fill="white"/>
  <path d="M100.383 0.895465C105.558 0.973866 103.739 5.00363 101.606 3.60811C101.434 2.63595 100.854 1.63243 100.289 0.973866L100.383 0.895465ZM95.4599 2.80843L98.0628 3.68651H97.7335V7.66923C97.7335 10.2878 97.5453 13.706 94.1741 15.8542L94.0487 15.7601C95.3972 13.3924 95.4599 10.3662 95.4599 7.66923V2.80843ZM107.094 2.19691C107.094 2.19691 108.318 3.20043 109.023 3.87467C108.976 4.04715 108.804 4.12555 108.584 4.12555H96.5262V3.68651H106.013L107.094 2.19691ZM106.436 5.34859C106.436 5.34859 107.737 6.41483 108.49 7.12043C108.443 7.29291 108.27 7.37131 108.035 7.37131H102.688V6.93227H105.291L106.436 5.34859ZM104.366 4.53323C104.335 4.75275 104.241 4.90955 103.802 4.98795V10.3348H101.528V4.31371L104.366 4.53323ZM105.918 13.7531V14.1921H99.0663V13.7531H105.918ZM98.251 9.14315L100.525 9.98987H104.899L105.918 8.84523L107.8 10.2721C107.706 10.4132 107.549 10.5073 107.189 10.5857V15.2427C107.189 15.3368 106.514 15.6974 105.37 15.6974H104.978V10.4289H100.368V15.3524C100.368 15.4779 99.7249 15.8228 98.643 15.8228H98.251V9.14315Z" fill="white"/>
</svg>